# Blender 3.6.5
# www.blender.org
mtllib home-low-poly.mtl
o Cube
v -2.480643 2.020505 -2.137003
v -5.000000 0.007737 3.000000
v -5.000000 4.594198 3.000000
v -2.480643 4.020505 -2.137003
v -5.000000 0.007737 -3.000000
v -5.000000 4.594198 -3.000000
v 5.000000 0.007737 3.000000
v -0.480643 2.020505 -2.137003
v 5.000000 4.594198 3.000000
v -0.480643 4.020505 -2.137003
v 5.000000 0.007737 -3.000000
v 5.000000 4.594198 -3.000000
v -5.000000 7.107543 0.000000
v 0.319357 2.020505 -2.137003
v 5.000000 7.107543 0.000000
v 0.319357 4.020505 -2.137003
v -4.167372 0.862471 2.500423
v -4.167372 0.862471 -2.500423
v 4.167372 0.862471 -2.500423
v 2.319358 2.020505 -2.137003
v 2.319358 4.020505 -2.137003
v 4.167372 0.862471 2.500423
v -5.669003 0.007737 -3.401402
v -5.669003 0.007737 3.401402
v -2.480643 2.020505 2.137003
v 5.669003 0.007737 -3.401402
v -2.480643 4.020505 2.137003
v 5.669003 0.007737 3.401402
v 5.000000 4.841296 1.907243
v 5.000000 4.841296 -1.907243
v -0.480643 2.020505 2.137003
v 5.000000 6.667387 0.000000
v -5.000000 4.841296 -1.907243
v -0.480643 4.020505 2.137003
v -5.000000 4.841296 1.907243
v -5.000000 6.667387 0.000000
v 4.748742 4.841296 -1.907243
v 0.319357 2.020505 2.137003
v 4.748742 6.667387 0.000000
v 0.319357 4.020505 2.137003
v -4.748742 4.841296 1.907243
v -4.748742 6.667387 0.000000
v 2.319357 2.020505 2.137003
v 4.748742 4.841296 1.907243
v -4.748742 4.841296 -1.907243
v 2.319357 4.020505 2.137003
v -5.669003 0.707061 -3.401402
v -4.891952 0.862471 -2.935171
v 5.669003 0.707061 -3.401402
v 4.891952 0.862471 -2.935171
v 5.669003 0.707061 3.401402
v 4.891952 0.862471 2.935171
v -4.891952 0.862471 2.935171
v -5.669003 0.707061 3.401402
v 4.201766 1.016616 -0.987733
v 4.967107 4.446772 -1.217854
v 4.967107 4.446772 1.217854
v 4.201766 1.016616 0.987733
v 4.664260 4.514343 -1.217854
v 3.898919 1.084188 -0.987733
v 3.898919 1.084188 0.987733
v 4.664260 4.514343 1.217854
v -2.480643 2.020505 -2.655452
v -2.480643 4.020505 -2.923198
v 2.319358 4.020505 -2.923198
v 0.319357 4.020505 -2.923198
v -0.480643 4.020505 -2.923198
v -0.480643 2.020505 -2.655452
v 0.319357 2.020505 -2.655452
v 2.319358 2.020505 -2.655452
v -2.480643 4.020505 2.923198
v -0.480643 4.020505 2.923198
v 2.319357 4.020505 2.923198
v 2.319357 2.020505 2.655452
v 0.319357 4.020505 2.923198
v -2.480643 2.020505 2.655452
v -0.480643 2.020505 2.655452
v 0.319357 2.020505 2.655452
v -0.814828 2.179396 -2.137003
v -2.173458 2.179396 -2.137003
v -2.173458 3.861614 -2.137003
v -0.814828 3.861614 -2.137003
v 2.012172 2.179396 -2.137003
v 0.653543 2.179396 -2.137003
v 0.653543 3.861614 -2.137003
v 2.012172 3.861614 -2.137003
v -0.814828 2.179397 2.137003
v -0.814828 3.861614 2.137003
v -2.173458 3.861614 2.137003
v -2.173458 2.179397 2.137003
v 2.012172 2.179397 2.137003
v 2.012172 3.861614 2.137003
v 0.653543 3.861614 2.137003
v 0.653543 2.179397 2.137003
v -2.173458 2.179396 -2.137003
v -0.814828 2.179396 -2.137003
v -0.814828 3.861614 -2.137003
v -2.173458 3.861614 -2.137003
v 0.653543 2.179396 -2.137003
v 2.012172 2.179396 -2.137003
v 2.012172 3.861614 -2.137003
v 0.653543 3.861614 -2.137003
v -0.814828 2.179397 2.137003
v -0.814828 3.861614 2.137003
v -2.173458 2.179397 2.137003
v -2.173458 3.861614 2.137003
v 2.012172 2.179397 2.137003
v 2.012172 3.861614 2.137003
v 0.653543 2.179397 2.137003
v 0.653543 3.861614 2.137003
v -2.173458 2.179396 -1.944545
v -0.814828 2.179396 -1.944545
v -0.814828 3.861614 -1.944545
v -2.173458 3.861614 -1.944545
v 0.653543 2.179396 -1.944545
v 2.012172 2.179396 -1.944545
v 2.012172 3.861614 -1.944545
v 0.653543 3.861614 -1.944545
v -0.814828 2.179397 1.944545
v -0.814828 3.861614 1.944545
v -2.173458 2.179397 1.944545
v -2.173458 3.861614 1.944545
v 2.012172 2.179397 1.944545
v 2.012172 3.861614 1.944545
v 0.653543 2.179397 1.944545
v 0.653543 3.861614 1.944545
vn -0.9760 -0.2178 -0.0000
vn -0.0000 -0.1327 -0.9912
vn -0.2178 -0.9760 -0.0000
vn -0.0000 -0.1327 0.9912
vn -0.0000 1.0000 -0.0000
vn -0.0000 -0.7223 0.6916
vn -0.0000 -1.0000 -0.0000
vn -1.0000 -0.0000 -0.0000
vn -0.0000 -0.0000 1.0000
vn -0.0000 -0.0000 -1.0000
vn 1.0000 -0.0000 -0.0000
vn -0.0000 -0.7223 -0.6916
vn -0.0000 0.9487 0.3162
vn 0.1961 0.9806 -0.0000
vn -0.0000 0.9487 -0.3162
vn -0.1961 0.9806 -0.0000
vn 0.9760 -0.2178 -0.0000
vn 0.0142 0.0638 0.9979
vn 0.0142 0.0638 -0.9979
vn 0.2178 0.9760 -0.0000
vt 0.421590 0.000000
vt 0.625000 0.000000
vt 0.625000 0.250000
vt 0.421590 0.250000
vt 0.593729 0.311764
vt 0.625000 0.500000
vt 0.593729 0.434112
vt 0.593729 0.383128
vt 0.593729 0.362766
vt 0.421590 0.500000
vt 0.484712 0.304664
vt 0.484713 0.361347
vt 0.484712 0.384072
vt 0.484712 0.440778
vt 0.616964 0.518866
vt 0.616964 0.731135
vt 0.484712 0.865928
vt 0.593729 0.866872
vt 0.593729 0.887234
vt 0.484713 0.888653
vt 0.484713 0.945336
vt 0.593729 0.938236
vt 0.625000 1.000000
vt 0.421590 1.000000
vt 0.421590 0.750000
vt 0.625000 0.750000
vt 0.593729 0.815888
vt 0.484712 0.809222
vt 0.625000 0.216758
vt 0.625000 0.057821
vt 0.625000 0.228109
vt 0.000000 0.000000
vt 0.375000 0.000000
vt 0.413119 0.000000
vt 0.413119 0.250000
vt 0.375000 0.250000
vt 0.375000 0.750000
vt 0.413119 0.750000
vt 0.413119 1.000000
vt 0.375000 1.000000
vt 0.413119 0.500000
vt 0.375000 0.500000
vt 0.625000 0.557821
vt 0.625000 0.716758
vt 0.625000 0.728109
vt 0.429992 0.522619
vt 0.429992 0.727381
vt 0.625000 0.209572
vt 0.375000 0.138200
vt 0.625000 0.540428
vt 0.375000 0.611800
vt 0.383179 0.959103
vt 0.383179 0.790897
vt 0.125000 0.611800
vt 0.125000 0.750000
vt 0.875000 0.750000
vt 0.875000 0.540428
vt 0.383179 0.959103
vt 0.616821 0.959103
vt 0.625000 0.209572
vt 0.625000 0.540428
vt 0.383179 0.790897
vt 0.616821 0.790897
vt 0.616821 0.790897
vt 0.383179 0.790897
vt 0.616821 0.790897
s 0
f 17/1/1 3/2/1 6/3/1 18/4/1
f 64/5/2 6/3/2 12/6/2 65/7/2 66/8/2 67/9/2
f 65/7/2 12/6/2 19/10/2 18/4/2 6/3/2 64/5/2 63/11/2 68/12/2 67/9/2 66/8/2 69/13/2 70/14/2
f 56/15/3 57/16/3 62/16/3 59/15/3
f 78/17/4 75/18/4 72/19/4 77/20/4 76/21/4 71/22/4 3/23/4 17/24/4 22/25/4 9/26/4 73/27/4 74/28/4
f 73/27/4 9/26/4 3/23/4 71/22/4 72/19/4 75/18/4
f 33/29/5 35/30/5 41/30/5 45/29/5
f 36/31/6 33/29/6 45/29/6 42/31/6
f 7/32/7 11/32/7 26/32/7 28/32/7
f 5/32/7 2/32/7 24/32/7 23/32/7
f 24/33/8 54/34/8 47/35/8 23/36/8
f 22/25/5 17/24/5 53/24/5 52/25/5
f 28/37/9 51/38/9 54/39/9 24/40/9
f 19/10/5 22/25/5 52/25/5 50/10/5
f 23/36/10 47/35/10 49/41/10 26/42/10
f 18/4/5 19/10/5 50/10/5 48/4/5
f 26/42/11 49/41/11 51/38/11 28/37/11
f 2/32/7 7/32/7 28/32/7 24/32/7
f 11/32/7 5/32/7 23/32/7 26/32/7
f 9/26/11 12/6/11 30/43/11 29/44/11
f 12/6/11 15/26/11 32/45/11 30/43/11
f 15/26/11 9/26/11 29/44/11 32/45/11
f 6/3/8 3/2/8 35/30/8 33/29/8
f 3/2/8 13/3/8 36/31/8 35/30/8
f 13/3/8 6/3/8 33/29/8 36/31/8
f 44/44/11 37/43/11 39/45/11
f 45/29/8 41/30/8 42/31/8
f 35/30/12 36/31/12 42/31/12 41/30/12
f 29/44/5 30/43/5 37/43/5 44/44/5
f 32/45/12 29/44/12 44/44/12 39/45/12
f 30/43/6 32/45/6 39/45/6 37/43/6
f 52/25/13 53/24/13 54/39/13 51/38/13
f 50/10/14 52/25/14 51/38/14 49/41/14
f 48/4/15 50/10/15 49/41/15 47/35/15
f 53/1/16 48/4/16 47/35/16 54/34/16
f 17/1/5 18/4/5 48/4/5 53/1/5
f 19/10/17 12/6/17 56/15/17 55/46/17
f 12/6/17 9/26/17 57/16/17 56/15/17
f 9/26/17 22/25/17 58/47/17 57/16/17
f 22/25/17 19/10/17 55/46/17 58/47/17
f 60/46/17 59/15/17 62/16/17 61/47/17
f 55/46/18 56/15/18 59/15/18 60/46/18
f 57/16/19 58/47/19 61/47/19 62/16/19
f 58/47/20 55/46/20 60/46/20 61/47/20
f 64/48/11 4/2/11 1/33/11 63/49/11
f 8/37/8 10/26/8 67/50/8 68/51/8
f 90/52/5 87/53/5 103/53/5 105/52/5
f 63/54/5 1/55/5 8/37/5 68/51/5
f 10/26/7 4/56/7 64/57/7 67/50/7
f 66/48/11 16/2/11 14/33/11 69/49/11
f 70/51/8 20/37/8 21/26/8 65/50/8
f 80/58/5 81/59/5 98/59/5 95/58/5
f 69/54/5 14/55/5 20/37/5 70/51/5
f 21/26/7 16/56/7 66/57/7 65/50/7
f 76/49/11 25/33/11 27/2/11 71/60/11
f 72/61/8 34/26/8 31/37/8 77/51/8
f 91/62/5 92/63/5 108/63/5 107/62/5
f 77/51/5 31/37/5 25/55/5 76/54/5
f 71/57/7 27/56/7 34/26/7 72/61/7
f 78/49/11 38/33/11 40/2/11 75/60/11
f 73/61/8 46/26/8 43/37/8 74/51/8
f 86/64/5 83/65/5 100/65/5 101/64/5
f 74/51/5 43/37/5 38/55/5 78/54/5
f 75/57/7 40/56/7 46/26/7 73/61/7
f 8/37/10 1/40/10 80/58/10 79/65/10
f 1/40/10 4/23/10 81/59/10 80/58/10
f 4/23/10 10/26/10 82/64/10 81/59/10
f 10/26/10 8/37/10 79/65/10 82/64/10
f 20/37/10 14/40/10 84/58/10 83/65/10
f 14/40/10 16/23/10 85/59/10 84/58/10
f 16/23/10 21/26/10 86/64/10 85/59/10
f 21/26/10 20/37/10 83/65/10 86/64/10
f 31/37/9 34/26/9 88/66/9 87/53/9
f 34/26/9 27/23/9 89/59/9 88/66/9
f 27/23/9 25/40/9 90/52/9 89/59/9
f 25/40/9 31/37/9 87/53/9 90/52/9
f 43/37/9 46/26/9 92/63/9 91/62/9
f 46/26/9 40/23/9 93/59/9 92/63/9
f 40/23/9 38/40/9 94/52/9 93/59/9
f 38/40/9 43/37/9 91/62/9 94/52/9
f 105/52/5 103/53/5 119/53/5 121/52/5
f 97/64/8 96/65/8 112/65/8 113/64/8
f 103/53/8 104/66/8 120/66/8 119/53/8
f 110/59/11 109/52/11 125/52/11 126/59/11
f 84/58/5 85/59/5 102/59/5 99/58/5
f 94/52/5 91/62/5 107/62/5 109/52/5
f 81/59/5 82/64/5 97/64/5 98/59/5
f 88/66/5 89/59/5 106/59/5 104/66/5
f 85/59/5 86/64/5 101/64/5 102/59/5
f 92/63/5 93/59/5 110/59/5 108/63/5
f 89/59/5 90/52/5 105/52/5 106/59/5
f 93/59/5 94/52/5 109/52/5 110/59/5
f 79/65/5 80/58/5 95/58/5 96/65/5
f 83/65/5 84/58/5 99/58/5 100/65/5
f 82/64/5 79/65/5 96/65/5 97/64/5
f 87/53/5 88/66/5 104/66/5 103/53/5
f 112/65/10 111/58/10 114/59/10 113/64/10
f 116/65/10 115/58/10 118/59/10 117/64/10
f 119/53/9 120/66/9 122/59/9 121/52/9
f 123/62/9 124/63/9 126/59/9 125/52/9
f 95/58/11 98/59/11 114/59/11 111/58/11
f 104/66/7 106/59/7 122/59/7 120/66/7
f 98/59/7 97/64/7 113/64/7 114/59/7
f 106/59/11 105/52/11 121/52/11 122/59/11
f 100/65/5 99/58/5 115/58/5 116/65/5
f 107/62/8 108/63/8 124/63/8 123/62/8
f 101/64/8 100/65/8 116/65/8 117/64/8
f 109/52/5 107/62/5 123/62/5 125/52/5
f 99/58/11 102/59/11 118/59/11 115/58/11
f 108/63/7 110/59/7 126/59/7 124/63/7
f 102/59/7 101/64/7 117/64/7 118/59/7
f 96/65/5 95/58/5 111/58/5 112/65/5
o Cube.001
v -5.742918 4.594198 3.000000
v -5.742918 4.594198 -3.000000
v 5.742918 4.594198 3.000000
v 5.742918 4.594198 -3.000000
v -5.742918 7.107543 0.000000
v 5.742918 7.107543 0.000000
v -5.742918 4.696756 -3.773294
v 5.742918 4.696756 -3.773294
v 5.742918 4.696756 3.773294
v -5.742918 4.696756 3.773294
v -5.742918 4.178410 -3.496296
v 5.742918 4.178410 -3.496296
v 5.742918 4.178410 3.496296
v -5.742918 4.178410 3.496296
v -5.742918 4.280968 -4.269590
v 5.742918 4.280968 -4.269590
v 5.742918 4.280968 4.269590
v -5.742918 4.280968 4.269590
v 5.742918 7.483676 -0.446747
v 5.742918 7.483676 0.446747
v 5.742918 7.455139 0.000000
v 5.742918 7.638707 0.000000
v -5.742918 7.483676 0.446747
v -5.742918 7.483676 -0.446747
v -5.742918 7.455139 0.000000
v -5.742918 7.638707 0.000000
vn -0.0000 -0.7665 -0.6422
vn -0.0000 -0.7665 0.6422
vn -1.0000 -0.0000 -0.0000
vn 1.0000 -0.0000 -0.0000
vn -0.0000 0.7665 0.6422
vn -0.0000 0.7665 -0.6422
vn -0.0000 -0.9913 -0.1315
vn -0.0000 -0.9913 0.1315
vn -0.0000 0.9447 0.3278
vn -0.0000 0.9447 -0.3278
vt 0.625000 1.000000
vt 0.625000 0.750000
vt 0.625000 0.500000
vt 0.625000 0.250000
vt 0.625000 0.750000
vt 0.625000 0.250000
s 0
f 127/67/21 131/67/21 132/68/21 129/68/21
f 130/69/22 132/69/22 131/70/22 128/70/22
f 131/67/23 127/67/23 136/67/23 149/67/23 151/67/23
f 129/68/24 132/68/24 147/68/24 146/71/24 135/68/24
f 136/67/25 135/68/25 146/68/25 149/67/25
f 134/69/26 133/70/26 150/70/26 145/69/26
f 133/70/26 134/69/26 142/69/26 141/70/26
f 128/70/23 131/70/23 151/70/23 150/72/23 133/70/23
f 134/69/24 130/69/24 138/69/24 142/69/24
f 138/69/27 137/70/27 141/70/27 142/69/27
f 140/67/28 139/68/28 143/68/28 144/67/28
f 127/67/21 129/68/21 139/68/21 140/67/21
f 136/67/23 127/67/23 140/67/23 144/67/23
f 135/68/25 136/67/25 144/67/25 143/68/25
f 129/68/24 135/68/24 143/68/24 139/68/24
f 128/70/23 133/70/23 141/70/23 137/70/23
f 130/69/22 128/70/22 137/70/22 138/69/22
f 145/68/24 148/68/24 147/68/24
f 148/68/24 146/71/24 147/68/24
f 149/67/23 152/67/23 151/67/23
f 152/67/23 150/67/23 151/67/23
f 149/67/29 146/68/29 148/68/29 152/67/29
f 152/70/30 148/69/30 145/69/30 150/70/30
f 132/69/24 130/69/24 134/69/24 145/69/24 147/69/24
